<?xml version="1.0" encoding="UTF-8" standalone="no"?>
<!-- Created with Inkscape (http://www.inkscape.org/) -->

<svg
   xmlns:dc="http://purl.org/dc/elements/1.1/"
   xmlns:cc="http://creativecommons.org/ns#"
   xmlns:rdf="http://www.w3.org/1999/02/22-rdf-syntax-ns#"
   xmlns:svg="http://www.w3.org/2000/svg"
   xmlns="http://www.w3.org/2000/svg"
   xmlns:xlink="http://www.w3.org/1999/xlink"
   xmlns:sodipodi="http://sodipodi.sourceforge.net/DTD/sodipodi-0.dtd"
   xmlns:inkscape="http://www.inkscape.org/namespaces/inkscape"
   width="8.5in"
   height="11in"
   viewBox="0 0 765 990"
   id="svg4850"
   version="1.1"
   inkscape:version="0.91 r13725"
   sodipodi:docname="space-time_geometries.svg"
   inkscape:export-filename="/Users/doug/workspace/Q/docs/images/Math/equivalence_classes/space-time_geometries.png"
   inkscape:export-xdpi="199.979"
   inkscape:export-ydpi="199.979">
  <defs
     id="defs4852">
    <filter
       style="color-interpolation-filters:sRGB;"
       inkscape:label="Blur"
       id="filter4323">
      <feGaussianBlur
         stdDeviation="1.5 1.5"
         result="blur"
         id="feGaussianBlur4325" />
    </filter>
    <filter
       style="color-interpolation-filters:sRGB;"
       inkscape:label="Blur"
       id="filter4327">
      <feGaussianBlur
         stdDeviation="1.5 1.5"
         result="blur"
         id="feGaussianBlur4329" />
    </filter>
    <filter
       style="color-interpolation-filters:sRGB;"
       inkscape:label="Blur"
       id="filter4331">
      <feGaussianBlur
         stdDeviation="1.5 1.5"
         result="blur"
         id="feGaussianBlur4333" />
    </filter>
    <filter
       style="color-interpolation-filters:sRGB;"
       inkscape:label="Blur"
       id="filter4335">
      <feGaussianBlur
         stdDeviation="1.5 1.5"
         result="blur"
         id="feGaussianBlur4337" />
    </filter>
    <filter
       style="color-interpolation-filters:sRGB;"
       inkscape:label="Blur"
       id="filter4339">
      <feGaussianBlur
         stdDeviation="1.5 1.5"
         result="blur"
         id="feGaussianBlur4341" />
    </filter>
    <filter
       style="color-interpolation-filters:sRGB;"
       inkscape:label="Blur"
       id="filter4362">
      <feGaussianBlur
         stdDeviation="1.5 1.5"
         result="blur"
         id="feGaussianBlur4364" />
    </filter>
    <filter
       style="color-interpolation-filters:sRGB;"
       inkscape:label="Blur"
       id="filter4415">
      <feGaussianBlur
         stdDeviation="1.5 1.5"
         result="blur"
         id="feGaussianBlur4417" />
    </filter>
    <filter
       style="color-interpolation-filters:sRGB;"
       inkscape:label="Blur"
       id="filter4419">
      <feGaussianBlur
         stdDeviation="1.5 1.5"
         result="blur"
         id="feGaussianBlur4421" />
    </filter>
    <filter
       style="color-interpolation-filters:sRGB;"
       inkscape:label="Blur"
       id="filter4423">
      <feGaussianBlur
         stdDeviation="1.5 1.5"
         result="blur"
         id="feGaussianBlur4425" />
    </filter>
    <filter
       style="color-interpolation-filters:sRGB;"
       inkscape:label="Blur"
       id="filter4427">
      <feGaussianBlur
         stdDeviation="1.5 1.5"
         result="blur"
         id="feGaussianBlur4429" />
    </filter>
    <filter
       style="color-interpolation-filters:sRGB;"
       inkscape:label="Blur"
       id="filter4442">
      <feGaussianBlur
         stdDeviation="1.5 1.5"
         result="blur"
         id="feGaussianBlur4444" />
    </filter>
    <filter
       style="color-interpolation-filters:sRGB;"
       inkscape:label="Blur"
       id="filter4446">
      <feGaussianBlur
         stdDeviation="1.5 1.5"
         result="blur"
         id="feGaussianBlur4448" />
    </filter>
    <filter
       style="color-interpolation-filters:sRGB;"
       inkscape:label="Blur"
       id="filter4461">
      <feGaussianBlur
         stdDeviation="1.5 1.5"
         result="blur"
         id="feGaussianBlur4463" />
    </filter>
    <filter
       style="color-interpolation-filters:sRGB;"
       inkscape:label="Blur"
       id="filter4465">
      <feGaussianBlur
         stdDeviation="1.5 1.5"
         result="blur"
         id="feGaussianBlur4467" />
    </filter>
  </defs>
  <sodipodi:namedview
     id="base"
     pagecolor="#ffffff"
     bordercolor="#666666"
     borderopacity="1.0"
     inkscape:pageopacity="0.0"
     inkscape:pageshadow="2"
     inkscape:zoom="0.98994949"
     inkscape:cx="327.50008"
     inkscape:cy="551.62133"
     inkscape:document-units="px"
     inkscape:current-layer="layer1"
     showgrid="false"
     inkscape:window-width="1396"
     inkscape:window-height="981"
     inkscape:window-x="82"
     inkscape:window-y="0"
     inkscape:window-maximized="0"
     units="in"
     inkscape:snap-text-baseline="false" />
  <metadata
     id="metadata4855">
    <rdf:RDF>
      <cc:Work
         rdf:about="">
        <dc:format>image/svg+xml</dc:format>
        <dc:type
           rdf:resource="http://purl.org/dc/dcmitype/StillImage" />
        <dc:title />
      </cc:Work>
    </rdf:RDF>
  </metadata>
  <g
     inkscape:label="Graphs"
     inkscape:groupmode="layer"
     id="layer1"
     transform="translate(0,-62.362205)">
    <image
       sodipodi:absref="/Users/doug/workspace/Q/docs/images/Math/equivalence_classes/electro_weak.min.png"
       xlink:href="electro_weak.min.png"
       y="493.49078"
       x="401.79288"
       id="image6823"
       style="image-rendering:optimizeQuality"
       preserveAspectRatio="none"
       height="301.04999"
       width="314.54999" />
    <image
       sodipodi:absref="/Users/doug/workspace/Q/docs/images/Math/equivalence_classes/Space+Time.min.png"
       xlink:href="Space+Time.min.png"
       width="314.54999"
       height="301.04999"
       preserveAspectRatio="none"
       style="image-rendering:optimizeQuality"
       id="image10255"
       x="37.582161"
       y="130.63362" />
    <image
       sodipodi:absref="/Users/doug/workspace/Q/docs/images/Math/equivalence_classes/light.min.png"
       xlink:href="light.min.png"
       y="130.63362"
       x="405.84286"
       id="image4521"
       style="image-rendering:optimizeQuality"
       preserveAspectRatio="none"
       height="301.04999"
       width="306.45001" />
    <image
       sodipodi:absref="/Users/doug/workspace/Q/docs/images/Math/equivalence_classes/Gravity.no_label.png"
       xlink:href="Gravity.no_label.png"
       y="493.49078"
       x="38.557152"
       id="image4583"
       style="image-rendering:optimizeQuality"
       preserveAspectRatio="none"
       height="300.60001"
       width="300.60001" />
  </g>
  <g
     inkscape:groupmode="layer"
     id="layer2"
     inkscape:label="text blurred"
     style="display:inline"
     sodipodi:insensitive="true">
    <g
       style="font-style:normal;font-variant:normal;font-weight:bold;font-stretch:normal;font-size:35px;line-height:110.00000238%;font-family:sans-serif;-inkscape-font-specification:'sans-serif, Bold';text-align:start;letter-spacing:0px;word-spacing:0px;writing-mode:lr-tb;text-anchor:start;fill:#ff0000;fill-opacity:1;stroke:none;stroke-width:1px;stroke-linecap:butt;stroke-linejoin:miter;stroke-opacity:1;filter:url(#filter4331)"
       id="text5778">
      <path
         d="m 142.42331,766.67444 q -2.46094,1.19629 -5.10986,1.79443 -2.64893,0.59815 -5.46875,0.59815 -6.37452,0 -10.1001,-3.55469 -3.72559,-3.57178 -3.72559,-9.67285 0,-6.16944 3.79395,-9.70703 3.79394,-3.5376 10.39062,-3.5376 2.54639,0 4.87061,0.47851 2.34131,0.47852 4.40918,1.41846 l 0,5.28076 q -2.13623,-1.21338 -4.25537,-1.81152 -2.10205,-0.59814 -4.22119,-0.59814 -3.93067,0 -6.0669,2.20458 -2.11914,2.1875 -2.11914,6.27198 0,4.05029 2.05078,6.25488 2.05078,2.20459 5.82764,2.20459 1.02539,0 1.89697,-0.11963 0.88867,-0.13672 1.58936,-0.41015 l 0,-4.95606 -4.01612,0 0,-4.40918 10.25391,0 0,12.27051 z"
         id="path4266"
         inkscape:connector-curvature="0" />
      <path
         d="m 162.14499,754.64319 q -0.80322,-0.37598 -1.60645,-0.54688 -0.78613,-0.18798 -1.58935,-0.18798 -2.3584,0 -3.64014,1.52099 -1.26465,1.50391 -1.26465,4.32373 l 0,8.81836 -6.11816,0 0,-19.14062 6.11816,0 0,3.14453 q 1.1792,-1.87989 2.7002,-2.73438 1.53808,-0.87158 3.67431,-0.87158 0.30762,0 0.66651,0.0342 0.35889,0.0171 1.04248,0.10254 l 0.0171,5.53711 z"
         id="path4268"
         inkscape:connector-curvature="0" />
      <path
         d="m 173.80026,759.95813 q -1.91406,0 -2.88818,0.64941 -0.95703,0.64942 -0.95703,1.91407 0,1.16211 0.76904,1.82861 0.78613,0.64941 2.17041,0.64941 1.72607,0 2.90527,-1.23046 1.1792,-1.24756 1.1792,-3.11036 l 0,-0.70068 -3.17871,0 z m 9.34815,-2.30713 0,10.92041 -6.16944,0 0,-2.83691 q -1.23047,1.74316 -2.76855,2.54638 -1.53809,0.78614 -3.74268,0.78614 -2.97363,0 -4.83642,-1.72608 -1.84571,-1.74316 -1.84571,-4.51172 0,-3.3667 2.30713,-4.93896 2.32422,-1.57227 7.28028,-1.57227 l 3.60595,0 0,-0.47851 q 0,-1.45264 -1.14502,-2.11914 -1.14502,-0.6836 -3.57177,-0.6836 -1.96534,0 -3.65723,0.39307 -1.69189,0.39307 -3.14453,1.1792 l 0,-4.66553 q 1.96533,-0.47851 3.94775,-0.71777 1.98242,-0.25635 3.96485,-0.25635 5.17822,0 7.46826,2.05078 2.30713,2.03369 2.30713,6.63086 z"
         id="path4270"
         inkscape:connector-curvature="0" />
      <path
         d="m 186.39548,749.43079 6.11816,0 4.76807,13.22754 4.75097,-13.22754 6.13526,0 -7.53662,19.14062 -6.71631,0 -7.51953,-19.14062 z"
         id="path4272"
         inkscape:connector-curvature="0" />
      <path
         d="m 211.63718,749.43079 6.11816,0 0,19.14062 -6.11816,0 0,-19.14062 z m 0,-7.45118 6.11816,0 0,4.99024 -6.11816,0 0,-4.99024 z"
         id="path4274"
         inkscape:connector-curvature="0" />
      <path
         d="m 230.35056,743.99622 0,5.43457 6.30615,0 0,4.375 -6.30615,0 0,8.11767 q 0,1.33301 0.52978,1.81153 0.52979,0.46142 2.10205,0.46142 l 3.14453,0 0,4.375 -5.24658,0 q -3.62305,0 -5.14404,-1.50391 -1.50391,-1.52099 -1.50391,-5.14404 l 0,-8.11767 -3.04199,0 0,-4.375 3.04199,0 0,-5.43457 6.11817,0 z"
         id="path4276"
         inkscape:connector-curvature="0" />
      <path
         d="m 237.90427,749.43079 6.11816,0 5.14404,12.98828 4.375,-12.98828 6.11817,0 -8.04932,20.95214 q -1.21338,3.19581 -2.83691,4.46045 -1.60645,1.28174 -4.25537,1.28174 l -3.5376,0 0,-4.01611 1.91406,0 q 1.55518,0 2.25586,-0.49561 0.71777,-0.4956 1.11084,-1.77734 l 0.1709,-0.52979 -8.52783,-19.87548 z"
         id="path4278"
         inkscape:connector-curvature="0" />
    </g>
    <g
       transform="translate(0,-62.362205)"
       style="font-style:normal;font-variant:normal;font-weight:bold;font-stretch:normal;font-size:45px;line-height:110.00000238%;font-family:sans-serif;-inkscape-font-specification:'sans-serif, Bold';text-align:start;letter-spacing:0px;word-spacing:0px;writing-mode:lr-tb;text-anchor:start;fill:#ff0000;fill-opacity:1;stroke:none;stroke-width:1px;stroke-linecap:butt;stroke-linejoin:miter;stroke-opacity:1;filter:url(#filter4323)"
       id="text4161">
      <path
         d="m 99.199409,880.94232 0,6.94336 q -2.702636,-1.20849 -5.273437,-1.82373 -2.570801,-0.61523 -4.855957,-0.61523 -3.032227,0 -4.482422,0.83496 -1.450195,0.83496 -1.450195,2.59277 0,1.31836 0.966797,2.06543 0.988769,0.7251 3.55957,1.25244 l 3.603516,0.7251 q 5.471191,1.09863 7.77832,3.33984 2.307129,2.24121 2.307129,6.37207 0,5.42725 -3.229981,8.08594 -3.208007,2.63672 -9.821777,2.63672 -3.120117,0 -6.262207,-0.59326 -3.14209,-0.59326 -6.28418,-1.75781 l 0,-7.14112 q 3.14209,1.66992 6.064453,2.52686 2.944336,0.83496 5.668946,0.83496 2.768554,0 4.240722,-0.92285 1.472168,-0.92285 1.472168,-2.63672 0,-1.53809 -1.010742,-2.37305 -0.988769,-0.83496 -3.977051,-1.49414 l -3.273925,-0.7251 q -4.921875,-1.05468 -7.207032,-3.36181 -2.263183,-2.30713 -2.263183,-6.21826 0,-4.89991 3.164062,-7.53663 3.164063,-2.63671 9.09668,-2.63671 2.702637,0 5.559082,0.41748 2.856445,0.3955 5.910644,1.20849 z"
         style="font-style:normal;font-variant:normal;font-weight:bold;font-stretch:normal;font-size:45px;line-height:110.00000238%;font-family:sans-serif;-inkscape-font-specification:'sans-serif, Bold';text-align:start;writing-mode:lr-tb;text-anchor:start;fill:#ff0000;stroke:none"
         id="path4189"
         inkscape:connector-curvature="0" />
      <path
         d="m 116.404,909.15521 0,12.91992 -7.86621,0 0,-33.96972 7.86621,0 0,3.60351 q 1.62598,-2.15332 3.60351,-3.16406 1.97754,-1.03271 4.54834,-1.03271 4.54834,0 7.47071,3.62548 2.92236,3.60352 2.92236,9.29444 0,5.69092 -2.92236,9.3164 -2.92237,3.60352 -7.47071,3.60352 -2.5708,0 -4.54834,-1.01074 -1.97753,-1.03272 -3.60351,-3.18604 z m 5.22949,-15.93017 q -2.52685,0 -3.88916,1.86767 -1.34033,1.84571 -1.34033,5.33936 0,3.49365 1.34033,5.36133 1.36231,1.8457 3.88916,1.8457 2.52686,0 3.84522,-1.8457 1.34033,-1.84571 1.34033,-5.36133 0,-3.51563 -1.34033,-5.36133 -1.31836,-1.8457 -3.84522,-1.8457 z"
         style="font-style:normal;font-variant:normal;font-weight:bold;font-stretch:normal;font-size:45px;line-height:110.00000238%;font-family:sans-serif;-inkscape-font-specification:'sans-serif, Bold';text-align:start;writing-mode:lr-tb;text-anchor:start;fill:#ff0000;stroke:none"
         id="path4191"
         inkscape:connector-curvature="0" />
      <path
         d="m 151.82392,901.64056 q -2.46094,0 -3.71338,0.83496 -1.23047,0.83497 -1.23047,2.46094 0,1.49414 0.98877,2.35108 1.01075,0.83496 2.79053,0.83496 2.21924,0 3.73535,-1.58203 1.51612,-1.60401 1.51612,-3.99903 l 0,-0.90088 -4.08692,0 z m 12.01904,-2.9663 0,14.04052 -7.93212,0 0,-3.64746 q -1.58204,2.24121 -3.55958,3.27393 -1.97753,1.01074 -4.81201,1.01074 -3.82324,0 -6.21826,-2.21924 -2.37305,-2.24121 -2.37305,-5.80078 0,-4.32861 2.96631,-6.3501 2.98828,-2.02148 9.36035,-2.02148 l 4.63624,0 0,-0.61524 q 0,-1.86767 -1.47217,-2.72461 -1.47217,-0.8789 -4.59229,-0.8789 -2.52685,0 -4.70215,0.50537 -2.17529,0.50537 -4.04297,1.51611 l 0,-5.99853 q 2.52686,-0.61524 5.07569,-0.92285 2.54883,-0.32959 5.09765,-0.32959 6.65772,0 9.60206,2.63671 2.9663,2.61475 2.9663,8.5254 z"
         style="font-style:normal;font-variant:normal;font-weight:bold;font-stretch:normal;font-size:45px;line-height:110.00000238%;font-family:sans-serif;-inkscape-font-specification:'sans-serif, Bold';text-align:start;writing-mode:lr-tb;text-anchor:start;fill:#ff0000;stroke:none"
         id="path4193"
         inkscape:connector-curvature="0" />
      <path
         d="m 191.00117,888.87445 0,6.41602 q -1.60401,-1.09864 -3.22998,-1.62598 -1.60401,-0.52734 -3.33985,-0.52734 -3.2959,0 -5.1416,1.93359 -1.82373,1.91162 -1.82373,5.36133 0,3.4497 1.82373,5.3833 1.8457,1.91162 5.1416,1.91162 1.84571,0 3.49366,-0.54932 1.66992,-0.54931 3.07617,-1.62597 l 0,6.43799 q -1.84571,0.68115 -3.75733,1.01074 -1.88965,0.35156 -3.80127,0.35156 -6.65771,0 -10.41504,-3.40576 -3.75732,-3.42774 -3.75732,-9.51416 0,-6.08643 3.75732,-9.49219 3.75733,-3.42773 10.41504,-3.42773 1.9336,0 3.80127,0.35156 1.88965,0.32959 3.75733,1.01074 z"
         style="font-style:normal;font-variant:normal;font-weight:bold;font-stretch:normal;font-size:45px;line-height:110.00000238%;font-family:sans-serif;-inkscape-font-specification:'sans-serif, Bold';text-align:start;writing-mode:lr-tb;text-anchor:start;fill:#ff0000;stroke:none"
         id="path4195"
         inkscape:connector-curvature="0" />
      <path
         d="m 222.40009,900.34418 0,2.24121 -18.39111,0 q 0.28564,2.76855 1.99951,4.15283 1.71387,1.38428 4.79004,1.38428 2.48291,0 5.07568,-0.7251 2.61475,-0.74707 5.36133,-2.24121 l 0,6.06445 q -2.79053,1.05469 -5.58105,1.58203 -2.79053,0.54932 -5.58106,0.54932 -6.67968,0 -10.39306,-3.38379 -3.69141,-3.40576 -3.69141,-9.53613 0,-6.02051 3.62549,-9.47022 3.64746,-3.4497 10.01953,-3.4497 5.80078,0 9.27246,3.49365 3.49365,3.49365 3.49365,9.33838 z m -8.08593,-2.61475 q 0,-2.24121 -1.31836,-3.60351 -1.29639,-1.38428 -3.40577,-1.38428 -2.28515,0 -3.71337,1.29638 -1.42823,1.27442 -1.77979,3.69141 l 10.21729,0 z"
         style="font-style:normal;font-variant:normal;font-weight:bold;font-stretch:normal;font-size:45px;line-height:110.00000238%;font-family:sans-serif;-inkscape-font-specification:'sans-serif, Bold';text-align:start;writing-mode:lr-tb;text-anchor:start;fill:#ff0000;stroke:none"
         id="path4197"
         inkscape:connector-curvature="0" />
      <path
         d="m 227.08027,896.56488 13.79883,0 0,6.39404 -13.79883,0 0,-6.39404 z"
         style="font-style:normal;font-variant:normal;font-weight:bold;font-stretch:normal;font-size:45px;line-height:110.00000238%;font-family:sans-serif;-inkscape-font-specification:'sans-serif, Bold';text-align:start;writing-mode:lr-tb;text-anchor:start;fill:#ff0000;stroke:none"
         id="path4199"
         inkscape:connector-curvature="0" />
      <path
         d="m 255.73261,881.1181 0,6.98731 8.10791,0 0,5.625 -8.10791,0 0,10.43701 q 0,1.71387 0.68115,2.3291 0.68116,0.59326 2.70264,0.59326 l 4.04297,0 0,5.625 -6.74561,0 q -4.6582,0 -6.61376,-1.93359 -1.9336,-1.95557 -1.9336,-6.61377 l 0,-10.43701 -3.91113,0 0,-5.625 3.91113,0 0,-6.98731 7.86621,0 z"
         style="font-style:normal;font-variant:normal;font-weight:bold;font-stretch:normal;font-size:45px;line-height:110.00000238%;font-family:sans-serif;-inkscape-font-specification:'sans-serif, Bold';text-align:start;writing-mode:lr-tb;text-anchor:start;fill:#ff0000;stroke:none"
         id="path4201"
         inkscape:connector-curvature="0" />
      <path
         d="m 268.67451,888.10541 7.86621,0 0,24.60937 -7.86621,0 0,-24.60937 z m 0,-9.58008 7.86621,0 0,6.41602 -7.86621,0 0,-6.41602 z"
         style="font-style:normal;font-variant:normal;font-weight:bold;font-stretch:normal;font-size:45px;line-height:110.00000238%;font-family:sans-serif;-inkscape-font-specification:'sans-serif, Bold';text-align:start;writing-mode:lr-tb;text-anchor:start;fill:#ff0000;stroke:none"
         id="path4203"
         inkscape:connector-curvature="0" />
      <path
         d="m 306.95087,892.19232 q 1.49414,-2.28515 3.5376,-3.47168 2.06543,-1.20849 4.52637,-1.20849 4.24072,0 6.45996,2.61474 2.21924,2.61475 2.21924,7.60254 l 0,14.98535 -7.91016,0 0,-12.83203 q 0.022,-0.28564 0.022,-0.59326 0.022,-0.30762 0.022,-0.87891 0,-2.61474 -0.76905,-3.77929 -0.76904,-1.18653 -2.48291,-1.18653 -2.24121,0 -3.47168,1.84571 -1.20849,1.8457 -1.25244,5.33935 l 0,12.08496 -7.91015,0 0,-12.83203 q 0,-4.08691 -0.70313,-5.25146 -0.70312,-1.18653 -2.50488,-1.18653 -2.26318,0 -3.49365,1.86768 -1.23047,1.8457 -1.23047,5.29541 l 0,12.10693 -7.91016,0 0,-24.60937 7.91016,0 0,3.60351 q 1.45019,-2.0874 3.31787,-3.14209 1.88965,-1.05468 4.15283,-1.05468 2.54883,0 4.5044,1.23046 1.95556,1.23047 2.9663,3.44971 z"
         style="font-style:normal;font-variant:normal;font-weight:bold;font-stretch:normal;font-size:45px;line-height:110.00000238%;font-family:sans-serif;-inkscape-font-specification:'sans-serif, Bold';text-align:start;writing-mode:lr-tb;text-anchor:start;fill:#ff0000;stroke:none"
         id="path4205"
         inkscape:connector-curvature="0" />
      <path
         d="m 355.64228,900.34418 0,2.24121 -18.39111,0 q 0.28564,2.76855 1.99951,4.15283 1.71387,1.38428 4.79004,1.38428 2.48291,0 5.07568,-0.7251 2.61475,-0.74707 5.36133,-2.24121 l 0,6.06445 q -2.79053,1.05469 -5.58105,1.58203 -2.79053,0.54932 -5.58106,0.54932 -6.67969,0 -10.39307,-3.38379 -3.6914,-3.40576 -3.6914,-9.53613 0,-6.02051 3.62549,-9.47022 3.64746,-3.4497 10.01953,-3.4497 5.80078,0 9.27246,3.49365 3.49365,3.49365 3.49365,9.33838 z m -8.08594,-2.61475 q 0,-2.24121 -1.31836,-3.60351 -1.29638,-1.38428 -3.40576,-1.38428 -2.28515,0 -3.71338,1.29638 -1.42822,1.27442 -1.77978,3.69141 l 10.21728,0 z"
         style="font-style:normal;font-variant:normal;font-weight:bold;font-stretch:normal;font-size:45px;line-height:110.00000238%;font-family:sans-serif;-inkscape-font-specification:'sans-serif, Bold';text-align:start;writing-mode:lr-tb;text-anchor:start;fill:#ff0000;stroke:none"
         id="path4207"
         inkscape:connector-curvature="0" />
      <path
         d="m 407.14619,910.27582 q -3.16407,1.53808 -6.56983,2.30713 -3.40576,0.76904 -7.03125,0.76904 -8.1958,0 -12.98584,-4.57031 -4.79004,-4.59229 -4.79004,-12.43653 0,-7.93213 4.87793,-12.48046 4.87793,-4.54834 13.35938,-4.54834 3.27392,0 6.26221,0.61523 3.01025,0.61523 5.66894,1.82373 l 0,6.78955 q -2.74658,-1.56006 -5.47119,-2.3291 -2.70264,-0.76904 -5.42725,-0.76904 -5.05371,0 -7.80029,2.83447 -2.72461,2.8125 -2.72461,8.06396 0,5.20752 2.63672,8.042 2.63672,2.83447 7.49268,2.83447 1.31835,0 2.43896,-0.15381 1.14258,-0.17578 2.04346,-0.52734 l 0,-6.37207 -5.16358,0 0,-5.66895 13.1836,0 0,15.77637 z"
         style="font-style:normal;font-variant:normal;font-weight:bold;font-stretch:normal;font-size:45px;line-height:110.00000238%;font-family:sans-serif;-inkscape-font-specification:'sans-serif, Bold';text-align:start;writing-mode:lr-tb;text-anchor:start;fill:#ff0000;stroke:none"
         id="path4209"
         inkscape:connector-curvature="0" />
      <path
         d="m 438.78681,900.34418 0,2.24121 -18.39111,0 q 0.28564,2.76855 1.99951,4.15283 1.71387,1.38428 4.79004,1.38428 2.48291,0 5.07568,-0.7251 2.61475,-0.74707 5.36133,-2.24121 l 0,6.06445 q -2.79053,1.05469 -5.58105,1.58203 -2.79053,0.54932 -5.58106,0.54932 -6.67969,0 -10.39306,-3.38379 -3.69141,-3.40576 -3.69141,-9.53613 0,-6.02051 3.62549,-9.47022 3.64746,-3.4497 10.01953,-3.4497 5.80078,0 9.27246,3.49365 3.49365,3.49365 3.49365,9.33838 z m -8.08594,-2.61475 q 0,-2.24121 -1.31836,-3.60351 -1.29638,-1.38428 -3.40576,-1.38428 -2.28515,0 -3.71338,1.29638 -1.42822,1.27442 -1.77978,3.69141 l 10.21728,0 z"
         style="font-style:normal;font-variant:normal;font-weight:bold;font-stretch:normal;font-size:45px;line-height:110.00000238%;font-family:sans-serif;-inkscape-font-specification:'sans-serif, Bold';text-align:start;writing-mode:lr-tb;text-anchor:start;fill:#ff0000;stroke:none"
         id="path4211"
         inkscape:connector-curvature="0" />
      <path
         d="m 456.51875,893.13715 q -2.61475,0 -3.99903,1.88964 -1.3623,1.86768 -1.3623,5.40528 0,3.5376 1.3623,5.42724 1.38428,1.86768 3.99903,1.86768 2.5708,0 3.9331,-1.86768 1.36231,-1.88964 1.36231,-5.42724 0,-3.5376 -1.36231,-5.40528 -1.3623,-1.88964 -3.9331,-1.88964 z m 0,-5.625 q 6.35009,0 9.90966,3.42773 3.58155,3.42773 3.58155,9.49219 0,6.06445 -3.58155,9.49219 -3.55957,3.42773 -9.90966,3.42773 -6.37207,0 -9.97559,-3.42773 -3.58154,-3.42774 -3.58154,-9.49219 0,-6.06446 3.58154,-9.49219 3.60352,-3.42773 9.97559,-3.42773 z"
         style="font-style:normal;font-variant:normal;font-weight:bold;font-stretch:normal;font-size:45px;line-height:110.00000238%;font-family:sans-serif;-inkscape-font-specification:'sans-serif, Bold';text-align:start;writing-mode:lr-tb;text-anchor:start;fill:#ff0000;stroke:none"
         id="path4213"
         inkscape:connector-curvature="0" />
      <path
         d="m 498.55244,892.19232 q 1.49414,-2.28515 3.53759,-3.47168 2.06543,-1.20849 4.52637,-1.20849 4.24072,0 6.45996,2.61474 2.21924,2.61475 2.21924,7.60254 l 0,14.98535 -7.91016,0 0,-12.83203 q 0.022,-0.28564 0.022,-0.59326 0.022,-0.30762 0.022,-0.87891 0,-2.61474 -0.76904,-3.77929 -0.76905,-1.18653 -2.48291,-1.18653 -2.24121,0 -3.47168,1.84571 -1.2085,1.8457 -1.25244,5.33935 l 0,12.08496 -7.91016,0 0,-12.83203 q 0,-4.08691 -0.70313,-5.25146 -0.70312,-1.18653 -2.50488,-1.18653 -2.26318,0 -3.49365,1.86768 -1.23047,1.8457 -1.23047,5.29541 l 0,12.10693 -7.91016,0 0,-24.60937 7.91016,0 0,3.60351 q 1.4502,-2.0874 3.31787,-3.14209 1.88965,-1.05468 4.15283,-1.05468 2.54883,0 4.5044,1.23046 1.95556,1.23047 2.96631,3.44971 z"
         style="font-style:normal;font-variant:normal;font-weight:bold;font-stretch:normal;font-size:45px;line-height:110.00000238%;font-family:sans-serif;-inkscape-font-specification:'sans-serif, Bold';text-align:start;writing-mode:lr-tb;text-anchor:start;fill:#ff0000;stroke:none"
         id="path4215"
         inkscape:connector-curvature="0" />
      <path
         d="m 547.24384,900.34418 0,2.24121 -18.39111,0 q 0.28564,2.76855 1.99951,4.15283 1.71387,1.38428 4.79004,1.38428 2.48291,0 5.07568,-0.7251 2.61475,-0.74707 5.36133,-2.24121 l 0,6.06445 q -2.79053,1.05469 -5.58105,1.58203 -2.79053,0.54932 -5.58106,0.54932 -6.67968,0 -10.39306,-3.38379 -3.69141,-3.40576 -3.69141,-9.53613 0,-6.02051 3.62549,-9.47022 3.64746,-3.4497 10.01953,-3.4497 5.80078,0 9.27246,3.49365 3.49365,3.49365 3.49365,9.33838 z m -8.08593,-2.61475 q 0,-2.24121 -1.31836,-3.60351 -1.29639,-1.38428 -3.40577,-1.38428 -2.28515,0 -3.71337,1.29638 -1.42823,1.27442 -1.77979,3.69141 l 10.21729,0 z"
         style="font-style:normal;font-variant:normal;font-weight:bold;font-stretch:normal;font-size:45px;line-height:110.00000238%;font-family:sans-serif;-inkscape-font-specification:'sans-serif, Bold';text-align:start;writing-mode:lr-tb;text-anchor:start;fill:#ff0000;stroke:none"
         id="path4217"
         inkscape:connector-curvature="0" />
      <path
         d="m 561.85566,881.1181 0,6.98731 8.10791,0 0,5.625 -8.10791,0 0,10.43701 q 0,1.71387 0.68115,2.3291 0.68115,0.59326 2.70264,0.59326 l 4.04297,0 0,5.625 -6.74561,0 q -4.6582,0 -6.61377,-1.93359 -1.93359,-1.95557 -1.93359,-6.61377 l 0,-10.43701 -3.91113,0 0,-5.625 3.91113,0 0,-6.98731 7.86621,0 z"
         style="font-style:normal;font-variant:normal;font-weight:bold;font-stretch:normal;font-size:45px;line-height:110.00000238%;font-family:sans-serif;-inkscape-font-specification:'sans-serif, Bold';text-align:start;writing-mode:lr-tb;text-anchor:start;fill:#ff0000;stroke:none"
         id="path4219"
         inkscape:connector-curvature="0" />
      <path
         d="m 593.0788,894.80707 q -1.03271,-0.4834 -2.06543,-0.70313 -1.01074,-0.2417 -2.04345,-0.2417 -3.03223,0 -4.68018,1.95557 -1.62598,1.93359 -1.62598,5.55908 l 0,11.33789 -7.86621,0 0,-24.60937 7.86621,0 0,4.04297 q 1.51612,-2.417 3.47168,-3.51563 1.97754,-1.1206 4.72413,-1.1206 0.3955,0 0.85693,0.0439 0.46143,0.022 1.34033,0.13184 l 0.022,7.11914 z"
         style="font-style:normal;font-variant:normal;font-weight:bold;font-stretch:normal;font-size:45px;line-height:110.00000238%;font-family:sans-serif;-inkscape-font-specification:'sans-serif, Bold';text-align:start;writing-mode:lr-tb;text-anchor:start;fill:#ff0000;stroke:none"
         id="path4221"
         inkscape:connector-curvature="0" />
      <path
         d="m 597.03388,888.10541 7.86621,0 0,24.60937 -7.86621,0 0,-24.60937 z m 0,-9.58008 7.86621,0 0,6.41602 -7.86621,0 0,-6.41602 z"
         style="font-style:normal;font-variant:normal;font-weight:bold;font-stretch:normal;font-size:45px;line-height:110.00000238%;font-family:sans-serif;-inkscape-font-specification:'sans-serif, Bold';text-align:start;writing-mode:lr-tb;text-anchor:start;fill:#ff0000;stroke:none"
         id="path4223"
         inkscape:connector-curvature="0" />
      <path
         d="m 637.06806,900.34418 0,2.24121 -18.39111,0 q 0.28564,2.76855 1.99951,4.15283 1.71387,1.38428 4.79004,1.38428 2.48291,0 5.07568,-0.7251 2.61475,-0.74707 5.36133,-2.24121 l 0,6.06445 q -2.79053,1.05469 -5.58105,1.58203 -2.79053,0.54932 -5.58106,0.54932 -6.67969,0 -10.39306,-3.38379 -3.69141,-3.40576 -3.69141,-9.53613 0,-6.02051 3.62549,-9.47022 3.64746,-3.4497 10.01953,-3.4497 5.80078,0 9.27246,3.49365 3.49365,3.49365 3.49365,9.33838 z m -8.08594,-2.61475 q 0,-2.24121 -1.31836,-3.60351 -1.29638,-1.38428 -3.40576,-1.38428 -2.28515,0 -3.71338,1.29638 -1.42822,1.27442 -1.77978,3.69141 l 10.21728,0 z"
         style="font-style:normal;font-variant:normal;font-weight:bold;font-stretch:normal;font-size:45px;line-height:110.00000238%;font-family:sans-serif;-inkscape-font-specification:'sans-serif, Bold';text-align:start;writing-mode:lr-tb;text-anchor:start;fill:#ff0000;stroke:none"
         id="path4225"
         inkscape:connector-curvature="0" />
      <path
         d="m 662.31464,888.87445 0,5.97656 q -2.52685,-1.05468 -4.87793,-1.58203 -2.35107,-0.52734 -4.43847,-0.52734 -2.24121,0 -3.33985,0.57129 -1.07666,0.54931 -1.07666,1.71386 0,0.94483 0.81299,1.4502 0.83496,0.50537 2.96631,0.74707 l 1.38428,0.19775 q 6.04248,0.76905 8.12988,2.52686 2.0874,1.75781 2.0874,5.51514 0,3.9331 -2.90039,5.91064 -2.90039,1.97754 -8.65722,1.97754 -2.43897,0 -5.05372,-0.39551 -2.59277,-0.37353 -5.33935,-1.14258 l 0,-5.97656 q 2.35107,1.14258 4.81201,1.71387 2.48291,0.57129 5.03174,0.57129 2.30713,0 3.47168,-0.63721 1.16455,-0.63721 1.16455,-1.88965 0,-1.05469 -0.81299,-1.56006 -0.79101,-0.52734 -3.18603,-0.81298 l -1.38428,-0.17579 q -5.25147,-0.65918 -7.36084,-2.43896 -2.10938,-1.77979 -2.10938,-5.40527 0,-3.91114 2.68067,-5.80079 2.68066,-1.88964 8.21777,-1.88964 2.17529,0 4.57031,0.32959 2.39502,0.32959 5.20752,1.03271 z"
         style="font-style:normal;font-variant:normal;font-weight:bold;font-stretch:normal;font-size:45px;line-height:110.00000238%;font-family:sans-serif;-inkscape-font-specification:'sans-serif, Bold';text-align:start;writing-mode:lr-tb;text-anchor:start;fill:#ff0000;stroke:none"
         id="path4227"
         inkscape:connector-curvature="0" />
    </g>
    <text
       xml:space="preserve"
       style="font-style:normal;font-variant:normal;font-weight:bold;font-stretch:normal;font-size:35px;line-height:110.00000238%;font-family:sans-serif;-inkscape-font-specification:'sans-serif, Bold';text-align:start;letter-spacing:0px;word-spacing:0px;writing-mode:lr-tb;text-anchor:start;display:inline;fill:#ff0000;fill-opacity:1;stroke:none;stroke-width:1px;stroke-linecap:butt;stroke-linejoin:miter;stroke-opacity:1;filter:url(#filter4427)"
       x="103.26033"
       y="404.06683"
       id="text4388"
       sodipodi:linespacing="110%"><tspan
         sodipodi:role="line"
         id="tspan4390"
         x="103.26033"
         y="404.06683">Classical</tspan></text>
    <text
       xml:space="preserve"
       style="font-style:italic;font-variant:normal;font-weight:bold;font-stretch:normal;font-size:35px;line-height:110.00000238%;font-family:sans-serif;-inkscape-font-specification:'sans-serif, Bold Italic';text-align:start;letter-spacing:0px;word-spacing:0px;writing-mode:lr-tb;text-anchor:start;display:inline;fill:#ff0000;fill-opacity:1;stroke:none;stroke-width:1px;stroke-linecap:butt;stroke-linejoin:miter;stroke-opacity:1;filter:url(#filter4419)"
       x="465.40527"
       y="771.94421"
       id="text4392"
       sodipodi:linespacing="110%"><tspan
         style="font-style:italic;font-variant:normal;font-weight:bold;font-stretch:normal;font-size:35px;line-height:110.00000238%;font-family:sans-serif;-inkscape-font-specification:'sans-serif, Bold Italic';text-align:start;letter-spacing:5.27000046px;writing-mode:lr-tb;text-anchor:start;fill:#ff0000"
         sodipodi:role="line"
         id="tspan4394"
         x="465.40527"
         y="771.94421">Light</tspan></text>
    <text
       xml:space="preserve"
       style="font-style:normal;font-variant:normal;font-weight:bold;font-stretch:normal;font-size:35px;line-height:110.00000238%;font-family:sans-serif;-inkscape-font-specification:'sans-serif, Bold';text-align:start;letter-spacing:0px;word-spacing:0px;writing-mode:lr-tb;text-anchor:start;display:inline;fill:#ff0000;fill-opacity:1;stroke:none;stroke-width:1px;stroke-linecap:butt;stroke-linejoin:miter;stroke-opacity:1;filter:url(#filter4423)"
       x="434.53271"
       y="404.85715"
       id="text4396"
       sodipodi:linespacing="110%"><tspan
         style="font-style:italic;font-variant:normal;font-weight:bold;font-stretch:normal;font-size:35px;line-height:110.00000238%;font-family:sans-serif;-inkscape-font-specification:'sans-serif, Bold Italic';text-align:start;writing-mode:lr-tb;text-anchor:start;fill:#ff0000"
         sodipodi:role="line"
         id="tspan4398"
         x="434.53271"
         y="404.85715">Fast Physics</tspan></text>
    <path
       style="fill:#ff0000;fill-rule:evenodd;stroke:#ff0000;stroke-width:4;stroke-linecap:round;stroke-linejoin:miter;stroke-miterlimit:4;stroke-dasharray:none;stroke-opacity:1;filter:url(#filter4465)"
       d="m 631.40833,743.25373 -5.09552,29.87311"
       id="path4454"
       inkscape:connector-curvature="0" />
    <path
       inkscape:connector-curvature="0"
       id="path4471"
       d="m 613.72859,757.66491 30.30457,0"
       style="display:inline;fill:none;fill-rule:evenodd;stroke:#ff0000;stroke-width:4;stroke-linecap:round;stroke-linejoin:miter;stroke-miterlimit:4;stroke-dasharray:none;stroke-opacity:1" />
  </g>
  <g
     inkscape:label="text forefront"
     id="g4166"
     inkscape:groupmode="layer"
     style="display:inline"
     sodipodi:insensitive="true">
    <text
       sodipodi:linespacing="110%"
       id="text4168"
       y="402.06683"
       x="101.26033"
       style="font-style:normal;font-variant:normal;font-weight:bold;font-stretch:normal;font-size:35px;line-height:110.00000238%;font-family:sans-serif;-inkscape-font-specification:'sans-serif, Bold';text-align:start;letter-spacing:0px;word-spacing:0px;writing-mode:lr-tb;text-anchor:start;fill:#0000ff;fill-opacity:1;stroke:none;stroke-width:1px;stroke-linecap:butt;stroke-linejoin:miter;stroke-opacity:1"
       xml:space="preserve"><tspan
         y="402.06683"
         x="101.26033"
         id="tspan4170"
         sodipodi:role="line">Classical</tspan></text>
    <text
       sodipodi:linespacing="110%"
       id="text4172"
       y="766.57141"
       x="114.27585"
       style="font-style:normal;font-variant:normal;font-weight:bold;font-stretch:normal;font-size:35px;line-height:110.00000238%;font-family:sans-serif;-inkscape-font-specification:'sans-serif, Bold';text-align:start;letter-spacing:0px;word-spacing:0px;writing-mode:lr-tb;text-anchor:start;fill:#0000ff;fill-opacity:1;stroke:none;stroke-width:1px;stroke-linecap:butt;stroke-linejoin:miter;stroke-opacity:1"
       xml:space="preserve"><tspan
         y="766.57141"
         x="114.27585"
         id="tspan4174"
         sodipodi:role="line">Gravity</tspan></text>
    <text
       sodipodi:linespacing="110%"
       id="text4176"
       y="769.94421"
       x="463.40527"
       style="font-style:italic;font-variant:normal;font-weight:bold;font-stretch:normal;font-size:35px;line-height:110.00000238%;font-family:sans-serif;-inkscape-font-specification:'sans-serif, Bold Italic';text-align:start;letter-spacing:0px;word-spacing:0px;writing-mode:lr-tb;text-anchor:start;fill:#0000ff;fill-opacity:1;stroke:none;stroke-width:1px;stroke-linecap:butt;stroke-linejoin:miter;stroke-opacity:1"
       xml:space="preserve"><tspan
         y="769.94421"
         x="463.40527"
         id="tspan4178"
         sodipodi:role="line"
         style="font-style:italic;font-variant:normal;font-weight:bold;font-stretch:normal;font-size:35px;line-height:110.00000238%;font-family:sans-serif;-inkscape-font-specification:'sans-serif, Bold Italic';text-align:start;letter-spacing:5.27000046px;writing-mode:lr-tb;text-anchor:start">Light</tspan></text>
    <text
       sodipodi:linespacing="110%"
       id="text4180"
       y="402.85715"
       x="432.53271"
       style="font-style:normal;font-variant:normal;font-weight:bold;font-stretch:normal;font-size:35px;line-height:110.00000238%;font-family:sans-serif;-inkscape-font-specification:'sans-serif, Bold';text-align:start;letter-spacing:0px;word-spacing:0px;writing-mode:lr-tb;text-anchor:start;fill:#0000ff;fill-opacity:1;stroke:none;stroke-width:1px;stroke-linecap:butt;stroke-linejoin:miter;stroke-opacity:1"
       xml:space="preserve"><tspan
         y="402.85715"
         x="432.53271"
         id="tspan4182"
         sodipodi:role="line"
         style="font-style:italic;font-variant:normal;font-weight:bold;font-stretch:normal;font-size:35px;line-height:110.00000238%;font-family:sans-serif;-inkscape-font-specification:'sans-serif, Bold Italic';text-align:start;writing-mode:lr-tb;text-anchor:start">Fast Physics</tspan></text>
    <text
       xml:space="preserve"
       style="font-style:normal;font-variant:normal;font-weight:bold;font-stretch:normal;font-size:45px;line-height:110.00000238%;font-family:sans-serif;-inkscape-font-specification:'sans-serif, Bold';text-align:start;letter-spacing:0px;word-spacing:0px;writing-mode:lr-tb;text-anchor:start;fill:#0000ff;fill-opacity:1;stroke:none;stroke-width:1px;stroke-linecap:butt;stroke-linejoin:miter;stroke-opacity:1"
       x="70.23896"
       y="848.3526"
       id="text4184"
       sodipodi:linespacing="110%"><tspan
         style="font-style:normal;font-variant:normal;font-weight:bold;font-stretch:normal;font-size:45px;line-height:110.00000238%;font-family:sans-serif;-inkscape-font-specification:'sans-serif, Bold';text-align:start;writing-mode:lr-tb;text-anchor:start;fill:#0000ff"
         sodipodi:role="line"
         id="tspan4186"
         x="70.23896"
         y="848.3526">Space-time Geometries</tspan></text>
    <path
       style="fill:none;fill-rule:evenodd;stroke:#0000ff;stroke-width:4;stroke-linecap:round;stroke-linejoin:miter;stroke-miterlimit:4;stroke-dasharray:none;stroke-opacity:1"
       d="m 611.72859,755.66491 30.30457,0"
       id="path4368"
       inkscape:connector-curvature="0" />
    <path
       inkscape:connector-curvature="0"
       id="path4370"
       d="m 629.40833,741.25373 -5.09552,29.87311"
       style="fill:none;fill-rule:evenodd;stroke:#0000ff;stroke-width:4;stroke-linecap:round;stroke-linejoin:miter;stroke-miterlimit:4;stroke-dasharray:none;stroke-opacity:1" />
  </g>
</svg>
